<?xml version="1.0" encoding="UTF-8"?>
<svg xmlns="http://www.w3.org/2000/svg" xmlns:xlink="http://www.w3.org/1999/xlink" width="128pt" height="129pt" viewBox="0 0 128 129" version="1.1">
<g id="surface1">
<path style=" stroke:none;fill-rule:nonzero;fill:rgb(0%,0%,0%);fill-opacity:1;" d="M 60.503906 0.0898438 C 58.734375 0.179688 55.421875 0.554688 53.316406 0.902344 C 41.863281 2.808594 31.207031 7.785156 22.160156 15.441406 C 20.339844 16.976562 16.675781 20.660156 15.195312 22.425781 C 12.855469 25.199219 10.816406 28.023438 9.085938 30.871094 C 8.019531 32.636719 7.890625 32.867188 6.511719 35.640625 C 0.273438 48.15625 -1.558594 62.757812 1.378906 76.589844 C 3.472656 86.449219 8.085938 95.988281 14.480469 103.667969 C 15.664062 105.085938 15.507812 105.113281 15.84375 103.476562 C 15.933594 103.066406 16.46875 101.800781 17.050781 100.652344 C 17.921875 98.886719 18.066406 98.527344 17.949219 98.292969 C 17.871094 98.140625 17.289062 97.300781 16.636719 96.414062 C 15.078125 94.246094 13.375 91.398438 12.046875 88.71875 C 10.917969 86.449219 9.957031 84.179688 10.058594 84.078125 C 10.085938 84.050781 10.722656 84.359375 11.464844 84.785156 C 15.105469 86.847656 16.179688 87.492188 18.757812 89.15625 C 19.445312 89.59375 20.027344 89.96875 20.054688 89.96875 C 20.070312 89.96875 20.070312 89.296875 20.042969 88.472656 C 20.015625 87.414062 20.070312 86.65625 20.226562 85.921875 C 20.339844 85.351562 20.457031 84.761719 20.496094 84.621094 C 20.523438 84.453125 20.339844 84.140625 19.9375 83.714844 C 19.613281 83.355469 19.132812 82.722656 18.871094 82.300781 C 18.417969 81.550781 18.390625 81.488281 18.390625 80.300781 C 18.390625 79.207031 18.429688 79 18.757812 78.394531 C 18.949219 78.019531 19.082031 77.65625 19.054688 77.605469 C 18.988281 77.503906 16.742188 76.226562 14.753906 75.144531 C 12.75 74.0625 8.019531 71.679688 7.058594 71.265625 C 6.589844 71.070312 6.589844 71.070312 6.34375 68.765625 C 6.171875 67.140625 6.109375 59.507812 6.265625 59.355469 C 6.355469 59.265625 9.136719 60.335938 12.542969 61.765625 C 14.648438 62.65625 15 62.808594 17.585938 64.046875 C 18.636719 64.550781 19.535156 64.960938 19.558594 64.960938 C 19.601562 64.960938 19.558594 64.808594 19.484375 64.613281 C 19.417969 64.433594 19.367188 63.984375 19.378906 63.621094 C 19.390625 63.261719 19.339844 62.746094 19.261719 62.472656 C 19.183594 62.164062 19.171875 61.828125 19.25 61.585938 C 19.328125 61.300781 19.300781 61.082031 19.144531 60.800781 C 19.003906 60.527344 18.960938 60.207031 19.015625 59.742188 C 19.054688 59.367188 19.015625 58.980469 18.9375 58.839844 C 18.859375 58.699219 18.78125 58.167969 18.757812 57.679688 C 18.730469 57.175781 18.691406 56.402344 18.664062 55.9375 C 18.636719 55.476562 18.546875 54.871094 18.457031 54.597656 C 18.378906 54.34375 18.328125 53.941406 18.351562 53.722656 C 18.402344 53.425781 18.351562 53.324219 18.144531 53.234375 C 17.988281 53.179688 17.492188 52.949219 17.027344 52.746094 C 15.285156 51.945312 12.386719 50.785156 9.617188 49.792969 C 8.722656 49.46875 7.980469 49.199219 7.964844 49.1875 C 7.914062 49.148438 8.511719 47.097656 8.992188 45.628906 C 9.683594 43.5 11.203125 39.699219 11.371094 39.699219 C 11.464844 39.699219 15.078125 40.808594 16.703125 41.324219 C 20.121094 42.433594 25.878906 44.699219 29.828125 46.503906 C 31.117188 47.097656 36.429688 49.738281 37.300781 50.230469 C 37.550781 50.371094 38.433594 50.859375 39.253906 51.3125 C 40.070312 51.765625 41.589844 52.640625 42.632812 53.257812 L 44.515625 54.367188 L 44.59375 53.390625 C 44.632812 52.832031 44.777344 51.980469 44.90625 51.46875 L 45.128906 50.550781 L 44.660156 49.792969 C 44.023438 48.761719 43.800781 47.792969 43.800781 46.054688 C 43.800781 45.074219 43.710938 44.199219 43.527344 43.320312 L 43.257812 42.042969 L 42.578125 41.683594 C 40.253906 40.421875 35.953125 38.269531 34.144531 37.457031 C 33.765625 37.289062 33.066406 36.964844 32.558594 36.734375 C 31.308594 36.167969 31 36.039062 30.023438 35.640625 C 29.554688 35.457031 29.011719 35.226562 28.789062 35.125 C 26.890625 34.285156 22.707031 32.738281 19.300781 31.632812 C 17.804688 31.140625 16.546875 30.726562 16.519531 30.714844 C 16.324219 30.597656 20.042969 26.050781 21.964844 24.0625 L 23.488281 22.507812 L 25.488281 23.058594 C 31.335938 24.695312 36.5625 26.605469 42.671875 29.335938 C 44.167969 30.007812 45.386719 30.546875 45.414062 30.546875 C 45.441406 30.546875 45.492188 29.605469 45.542969 28.445312 C 45.597656 27.300781 45.683594 26.089844 45.738281 25.742188 C 45.789062 25.40625 45.804688 25.136719 45.753906 25.136719 C 45.699219 25.136719 44.839844 25.984375 43.855469 27.015625 C 42.867188 28.046875 42.035156 28.820312 42.007812 28.71875 C 41.957031 28.472656 42.722656 23.703125 42.972656 22.699219 C 43.085938 22.234375 43.320312 21.539062 43.488281 21.152344 C 43.867188 20.3125 43.867188 20.324219 43.542969 20.492188 C 43.320312 20.609375 43.28125 20.597656 43.296875 20.339844 C 43.296875 20.171875 43.347656 19.773438 43.398438 19.425781 C 43.464844 19.023438 43.449219 18.78125 43.359375 18.703125 C 43.046875 18.445312 37.457031 16.292969 34.519531 15.300781 L 33.234375 14.863281 L 34.691406 14 C 38.433594 11.753906 43.332031 9.652344 47.832031 8.363281 C 49.273438 7.953125 51.328125 7.230469 51.507812 7.074219 C 51.574219 7.023438 51.378906 6.949219 51.09375 6.894531 C 50.792969 6.84375 50.558594 6.765625 50.558594 6.714844 C 50.558594 6.597656 56.433594 4.832031 57.644531 4.589844 C 59.488281 4.214844 61.074219 4.097656 63.195312 4.164062 C 66.144531 4.253906 67.742188 4.652344 69.71875 5.800781 C 70.199219 6.082031 70.628906 6.316406 70.652344 6.316406 C 70.667969 6.316406 70.550781 5.996094 70.367188 5.605469 C 70.199219 5.207031 70.054688 4.859375 70.054688 4.832031 C 70.054688 4.808594 70.695312 5.183594 71.472656 5.660156 C 73.398438 6.871094 73.253906 6.804688 74.878906 7.101562 C 76.671875 7.410156 79.792969 8.210938 81.753906 8.828125 C 94.507812 12.914062 105.515625 21.332031 112.777344 32.546875 C 114.792969 35.652344 116.5625 39.09375 117.914062 42.507812 C 118.328125 43.59375 118.472656 43.808594 118.589844 43.667969 C 119.863281 42.277344 122.476562 39.570312 122.515625 39.609375 C 122.542969 39.636719 122.476562 39.917969 122.359375 40.226562 C 122.242188 40.535156 121.839844 41.722656 121.433594 42.855469 C 121.046875 43.992188 120.488281 45.5 120.203125 46.210938 C 119.707031 47.417969 119.695312 47.535156 119.824219 48.117188 C 120.035156 48.992188 119.992188 49.09375 119.65625 48.683594 L 119.355469 48.324219 L 118.445312 50.101562 C 117.199219 52.539062 115.871094 54.691406 114.027344 57.332031 C 113.898438 57.523438 113.921875 57.617188 114.222656 57.9375 C 115.234375 59.058594 118.578125 63.453125 120.578125 66.316406 L 121.746094 67.992188 L 121.578125 69.601562 C 121.164062 73.300781 120.238281 77.632812 119.121094 81.074219 C 118.695312 82.402344 118.410156 83.03125 118.410156 82.671875 C 118.410156 82.503906 115.886719 78.753906 114.183594 76.371094 C 112.46875 73.984375 109.699219 70.324219 107.828125 68.003906 L 106.320312 66.136719 L 105.890625 66.585938 L 105.476562 67.035156 L 106.019531 68.160156 C 107.074219 70.3125 107.683594 72.554688 108.527344 77.273438 C 108.984375 79.863281 110.921875 87.96875 111.648438 90.355469 C 111.792969 90.820312 112.222656 91.707031 112.609375 92.351562 L 113.324219 93.511719 L 112.949219 94.15625 C 112.675781 94.632812 112.597656 94.917969 112.648438 95.226562 C 112.691406 95.472656 113.183594 96.425781 113.742188 97.355469 C 114.300781 98.269531 114.949219 99.457031 115.183594 99.984375 C 115.417969 100.5 115.640625 100.925781 115.679688 100.925781 C 115.78125 100.925781 118.589844 96.695312 119.449219 95.253906 C 128.429688 79.992188 130.46875 61.109375 124.972656 44.082031 C 121.890625 34.554688 116.523438 25.828125 109.375 18.753906 C 105.957031 15.351562 103.136719 13.058594 99.234375 10.503906 C 87.8125 3.015625 74.292969 -0.621094 60.503906 0.0898438 Z M 60.503906 0.0898438 "/>
<path style=" stroke:none;fill-rule:nonzero;fill:rgb(0%,0%,0%);fill-opacity:1;" d="M 59.527344 5.851562 C 58.917969 5.941406 57.945312 6.121094 57.382812 6.25 L 56.34375 6.484375 L 57.410156 6.832031 C 59.007812 7.371094 60.269531 8.09375 61.128906 8.933594 C 61.542969 9.34375 61.867188 9.707031 61.839844 9.730469 C 61.816406 9.757812 61.335938 9.550781 60.765625 9.269531 C 59.554688 8.6875 58.617188 8.429688 56.992188 8.234375 C 53.835938 7.875 50.300781 8.804688 48.519531 10.464844 C 48.144531 10.824219 47.832031 11.175781 47.832031 11.226562 C 47.832031 11.289062 48.105469 11.34375 48.453125 11.355469 C 48.792969 11.355469 49.597656 11.484375 50.234375 11.652344 L 51.40625 11.933594 L 50.429688 12.398438 C 48.128906 13.507812 46.832031 14.707031 45.828125 16.640625 C 45.503906 17.285156 45.230469 17.878906 45.230469 17.96875 C 45.230469 18.097656 45.515625 18.070312 46.441406 17.824219 C 47.582031 17.527344 49 17.453125 49 17.683594 C 49 17.734375 48.777344 17.890625 48.519531 18.03125 C 47.792969 18.394531 46.621094 19.332031 46.0625 19.976562 C 45.542969 20.597656 44.816406 22.042969 44.609375 22.878906 C 44.269531 24.230469 44.203125 24.179688 45.324219 23.417969 C 46.269531 22.773438 48.128906 22.027344 48.3125 22.207031 C 48.351562 22.246094 48.234375 22.660156 48.050781 23.109375 C 47.570312 24.296875 47.324219 25.78125 47.195312 28.292969 C 47.023438 31.320312 47.195312 33.175781 47.820312 34.957031 L 48.078125 35.691406 L 47.464844 35.253906 C 47.128906 35.019531 46.542969 34.722656 46.179688 34.609375 C 44.75 34.144531 44.414062 34.597656 44.347656 37.058594 C 44.296875 38.875 44.464844 40.175781 45.039062 42.664062 C 45.308594 43.796875 45.398438 44.558594 45.425781 45.886719 C 45.464844 47.703125 45.570312 48.195312 46.113281 49.003906 C 46.660156 49.832031 47.703125 50.074219 48.988281 49.675781 C 49.261719 49.597656 49.289062 49.625 49.222656 49.804688 C 49.167969 49.933594 49.132812 51.15625 49.132812 52.550781 L 49.132812 55.0625 L 48.714844 54.972656 C 47.84375 54.792969 47.257812 54.367188 46.894531 53.632812 C 46.6875 53.246094 46.53125 52.78125 46.53125 52.601562 C 46.53125 52.355469 46.492188 52.316406 46.375 52.433594 C 46.207031 52.601562 46.152344 54.882812 46.308594 55.488281 L 46.402344 55.875 L 43.828125 56.878906 C 37.808594 59.226562 34.429688 61.003906 31.402344 63.414062 C 30.855469 63.855469 30.386719 64.203125 30.363281 64.175781 C 30.335938 64.152344 29.984375 60.902344 29.597656 56.972656 C 29.128906 52.382812 28.789062 49.570312 28.644531 49.136719 C 28.320312 48.128906 27.570312 47.355469 26.699219 47.097656 C 26.046875 46.917969 25.734375 46.917969 22.863281 47.125 C 19.367188 47.382812 19.054688 47.472656 19.546875 48.140625 C 19.714844 48.375 19.820312 48.386719 21.847656 48.242188 C 23.019531 48.15625 24.019531 48.117188 24.070312 48.15625 C 24.121094 48.195312 24.175781 48.410156 24.175781 48.644531 L 24.175781 49.070312 L 22.070312 49.222656 C 20.898438 49.316406 19.871094 49.445312 19.796875 49.519531 C 19.574219 49.699219 19.585938 50.074219 19.820312 50.269531 C 19.964844 50.382812 20.445312 50.382812 22.097656 50.269531 C 23.238281 50.179688 24.203125 50.128906 24.226562 50.152344 C 24.253906 50.179688 24.320312 50.382812 24.359375 50.617188 C 24.476562 51.105469 24.410156 51.121094 22.355469 51.234375 C 21.601562 51.273438 20.769531 51.335938 20.496094 51.375 C 19.886719 51.46875 19.664062 51.816406 19.988281 52.175781 C 20.210938 52.433594 20.261719 52.433594 22.292969 52.28125 C 23.433594 52.1875 24.410156 52.136719 24.476562 52.164062 C 24.527344 52.1875 24.566406 52.410156 24.566406 52.640625 L 24.566406 53.078125 L 23.761719 53.15625 C 23.304688 53.195312 22.382812 53.257812 21.707031 53.308594 C 20.339844 53.402344 20.015625 53.515625 20.015625 53.867188 C 20.015625 54.40625 20.289062 54.457031 22.523438 54.300781 C 23.679688 54.214844 24.632812 54.160156 24.644531 54.175781 C 24.65625 54.1875 24.707031 54.40625 24.761719 54.664062 L 24.851562 55.128906 L 22.769531 55.269531 C 21.640625 55.347656 20.613281 55.449219 20.496094 55.503906 C 20.355469 55.554688 20.277344 55.722656 20.277344 55.953125 C 20.277344 56.457031 20.535156 56.496094 22.433594 56.339844 C 23.277344 56.261719 24.203125 56.199219 24.476562 56.199219 C 24.941406 56.199219 24.957031 56.210938 24.957031 56.648438 C 24.957031 56.894531 24.941406 57.101562 24.929688 57.113281 C 24.902344 57.113281 23.964844 57.191406 22.835938 57.292969 C 20.875 57.449219 20.40625 57.578125 20.40625 57.9375 C 20.40625 58.015625 20.511719 58.183594 20.640625 58.285156 C 20.835938 58.46875 21.097656 58.480469 22.941406 58.335938 C 24.085938 58.246094 25.058594 58.195312 25.125 58.21875 C 25.175781 58.246094 25.214844 58.46875 25.214844 58.699219 C 25.214844 59.125 25.214844 59.125 24.476562 59.199219 C 24.058594 59.253906 23.121094 59.316406 22.394531 59.367188 C 20.875 59.472656 20.585938 59.601562 20.71875 60.128906 L 20.808594 60.488281 L 22.328125 60.398438 C 23.164062 60.359375 24.175781 60.285156 24.578125 60.246094 L 25.304688 60.167969 L 25.382812 60.59375 C 25.421875 60.835938 25.410156 61.070312 25.359375 61.109375 C 25.320312 61.160156 24.34375 61.261719 23.199219 61.339844 C 21.539062 61.457031 21.097656 61.535156 20.953125 61.703125 C 20.742188 61.984375 20.757812 62.0625 21.015625 62.320312 C 21.199219 62.5 21.382812 62.527344 22.019531 62.460938 C 22.460938 62.421875 23.433594 62.347656 24.214844 62.304688 L 25.605469 62.21875 L 25.605469 62.679688 C 25.605469 63.234375 25.589844 63.234375 23.265625 63.363281 C 22.367188 63.414062 21.511719 63.492188 21.355469 63.558594 C 20.992188 63.6875 20.953125 64.253906 21.277344 64.421875 C 21.484375 64.523438 22.851562 64.472656 25.046875 64.265625 L 25.707031 64.214844 L 25.800781 64.667969 C 25.839844 64.910156 25.863281 65.144531 25.839844 65.15625 C 25.8125 65.183594 24.917969 65.273438 23.851562 65.347656 C 21.238281 65.542969 21.289062 65.53125 21.339844 66.03125 L 21.382812 66.445312 L 22.355469 66.445312 C 22.890625 66.445312 23.929688 66.390625 24.667969 66.339844 L 25.996094 66.238281 L 25.996094 67.242188 L 23.902344 67.386719 C 21.796875 67.539062 21.445312 67.632812 21.445312 68.054688 C 21.445312 68.558594 21.707031 68.597656 23.914062 68.429688 C 25.707031 68.300781 26.035156 68.300781 26.136719 68.457031 C 26.242188 68.609375 26.304688 69.203125 26.230469 69.214844 C 26.203125 69.230469 25.242188 69.304688 24.085938 69.398438 C 22.941406 69.5 21.925781 69.617188 21.847656 69.652344 C 21.628906 69.796875 21.679688 70.351562 21.941406 70.476562 C 22.070312 70.558594 22.824219 70.542969 23.824219 70.464844 C 24.734375 70.402344 25.515625 70.378906 25.554688 70.402344 C 25.589844 70.441406 25.515625 70.671875 25.398438 70.917969 L 25.191406 71.371094 L 23.761719 71.457031 C 22.980469 71.511719 22.253906 71.585938 22.160156 71.625 C 21.886719 71.71875 21.785156 72.167969 21.980469 72.398438 C 22.136719 72.566406 22.355469 72.578125 23.421875 72.515625 C 24.148438 72.464844 24.695312 72.476562 24.695312 72.542969 C 24.695312 72.605469 24.632812 72.839844 24.550781 73.042969 C 24.421875 73.417969 24.382812 73.445312 23.449219 73.519531 C 22.238281 73.636719 22.097656 73.6875 22.097656 74.046875 C 22.097656 74.539062 22.394531 74.667969 23.277344 74.5625 C 24.007812 74.476562 24.070312 74.488281 23.992188 74.695312 C 23.953125 74.8125 23.878906 75.054688 23.835938 75.222656 C 23.773438 75.457031 23.667969 75.53125 23.394531 75.53125 C 22.875 75.53125 22.367188 75.75 22.265625 75.996094 C 22.148438 76.292969 22.695312 76.730469 23.03125 76.613281 C 23.238281 76.550781 23.277344 76.589844 23.238281 76.832031 C 23.214844 77.09375 23.097656 77.15625 22.601562 77.222656 C 22.277344 77.273438 21.835938 77.402344 21.628906 77.503906 C 20.835938 77.917969 20.105469 79.011719 19.9375 80.03125 C 19.808594 80.804688 20.355469 81.796875 21.601562 83.085938 L 22.628906 84.140625 L 22.367188 84.566406 C 21.847656 85.457031 21.71875 86.398438 21.667969 89.839844 C 21.574219 94.503906 21.226562 95.859375 18.847656 100.601562 C 17.105469 104.09375 16.910156 104.867188 17.351562 106.902344 C 17.519531 107.714844 17.519531 107.820312 17.300781 108.257812 C 17.167969 108.515625 16.894531 109.238281 16.703125 109.855469 C 16.144531 111.621094 16.335938 112.34375 17.9375 114.558594 C 18.691406 115.605469 18.714844 115.65625 18.714844 116.457031 C 18.714844 118.054688 19.613281 119.910156 21.160156 121.507812 C 21.992188 122.359375 22.566406 122.707031 23.148438 122.707031 C 23.550781 122.707031 23.695312 122.796875 24.121094 123.328125 C 24.800781 124.140625 25.707031 125.015625 26.191406 125.3125 C 26.527344 125.503906 26.878906 125.542969 28.816406 125.542969 L 31.050781 125.542969 L 31.089844 125.957031 L 31.128906 126.378906 L 32.558594 126.664062 C 35.003906 127.152344 36.355469 127.269531 39.316406 127.269531 C 42.425781 127.269531 43.554688 127.128906 46.285156 126.445312 C 49.417969 125.660156 54.875 123.675781 60.476562 121.261719 C 62.140625 120.554688 63.636719 119.910156 63.820312 119.84375 C 64.078125 119.742188 64.574219 119.84375 66.484375 120.449219 C 76.167969 123.507812 83.328125 125.402344 86.890625 125.878906 C 90.359375 126.339844 94.675781 125.683594 97.742188 124.226562 C 98.832031 123.710938 98.859375 123.699219 100.171875 123.722656 C 102.472656 123.777344 103.566406 123.414062 104.707031 122.242188 C 105.253906 121.675781 105.449219 121.546875 105.8125 121.546875 C 106.566406 121.546875 107.90625 121.300781 108.789062 120.992188 C 109.910156 120.617188 110.960938 119.625 111.363281 118.542969 C 111.519531 118.132812 111.648438 117.640625 111.648438 117.449219 C 111.664062 117.175781 111.792969 117.023438 112.234375 116.738281 C 113.234375 116.109375 114.601562 113.941406 115.300781 111.882812 C 115.679688 110.746094 115.703125 110.550781 115.652344 109.367188 C 115.601562 108.308594 115.496094 107.832031 115.105469 106.722656 C 114.730469 105.667969 114.585938 104.996094 114.445312 103.644531 C 114.183594 101.234375 114.160156 101.167969 112.285156 98.011719 C 111.140625 96.101562 111.128906 96.066406 111.011719 94.917969 C 110.949219 94.273438 110.542969 92.492188 110.101562 90.871094 C 109.347656 88.074219 107.972656 82.683594 107.570312 80.933594 C 107.464844 80.46875 107.140625 78.753906 106.851562 77.128906 C 106.007812 72.4375 105.097656 69.484375 103.964844 67.8125 L 103.449219 67.050781 L 105.902344 64.613281 C 107.257812 63.285156 108.90625 61.5625 109.570312 60.773438 C 112.078125 57.847656 114.636719 54.1875 116.511719 50.835938 C 117.355469 49.304688 119.058594 45.757812 119.253906 45.113281 C 119.34375 44.789062 119.34375 44.789062 118.953125 45.175781 C 118.589844 45.539062 106.527344 58.351562 101.300781 63.929688 C 100.667969 64.601562 100.613281 64.628906 100.394531 64.433594 C 100.25 64.320312 99.769531 64.007812 99.300781 63.738281 C 98.832031 63.46875 98.445312 63.234375 98.429688 63.222656 C 98.378906 63.199219 97.535156 41.027344 97.46875 38.023438 C 97.429688 36.414062 97.324219 36.425781 96.792969 38.101562 C 95.765625 41.398438 95.023438 44.894531 94.554688 48.722656 C 94.269531 50.988281 94.152344 56.972656 94.351562 59.34375 C 94.425781 60.335938 94.464844 61.160156 94.441406 61.199219 C 94.402344 61.226562 93.542969 60.902344 92.515625 60.464844 C 91.488281 60.039062 88.550781 58.789062 85.980469 57.707031 L 81.300781 55.734375 L 81.351562 54.625 C 81.378906 54.019531 81.351562 53.273438 81.300781 52.960938 L 81.195312 52.394531 L 81.015625 53.039062 C 80.691406 54.132812 79.976562 54.820312 78.882812 55.074219 L 78.542969 55.167969 L 78.453125 52.511719 C 78.402344 51.054688 78.375 49.832031 78.414062 49.804688 C 78.441406 49.78125 78.765625 49.816406 79.117188 49.894531 C 80.039062 50.101562 80.636719 49.960938 81.207031 49.390625 C 81.898438 48.707031 82.144531 47.859375 82.144531 46.128906 C 82.144531 44.777344 82.246094 44.121094 82.925781 40.988281 C 83.066406 40.320312 83.222656 39.042969 83.261719 38.152344 C 83.390625 35.613281 83.054688 34.542969 82.105469 34.542969 C 81.636719 34.542969 80.222656 35.160156 79.949219 35.484375 C 79.609375 35.910156 79.582031 35.691406 79.882812 34.660156 C 80.480469 32.609375 80.691406 29.851562 80.46875 27.003906 C 80.207031 23.9375 79.675781 21.875 78.738281 20.417969 C 78.402344 19.890625 78.335938 19.65625 78.296875 18.742188 C 78.207031 16.511719 77.515625 13.753906 76.660156 12.246094 C 76.074219 11.199219 75.164062 10.105469 74.304688 9.394531 C 73.890625 9.046875 73.503906 8.765625 73.449219 8.765625 C 73.398438 8.765625 73.488281 9.164062 73.65625 9.667969 C 74.046875 10.8125 74.164062 11.933594 73.957031 12.554688 C 73.8125 13.003906 73.566406 13.1875 73.566406 12.851562 C 73.566406 12.515625 72.488281 10.609375 71.785156 9.691406 C 70.410156 7.914062 68.457031 6.625 66.222656 6.046875 C 64.910156 5.699219 61.230469 5.59375 59.527344 5.851562 Z M 53.695312 23.417969 C 55.796875 24.929688 57.996094 26.035156 61.285156 27.261719 C 63.195312 27.96875 63.703125 27.980469 65.445312 27.351562 C 66.910156 26.835938 69.953125 25.507812 71.164062 24.851562 C 71.539062 24.644531 72.566406 23.960938 73.449219 23.332031 C 74.488281 22.570312 75.164062 22.171875 75.371094 22.171875 C 75.867188 22.171875 76.699219 22.6875 76.984375 23.164062 C 77.671875 24.335938 77.777344 26.410156 77.257812 28.292969 C 77.089844 28.921875 76.90625 29.570312 76.867188 29.710938 C 76.816406 29.914062 76.867188 29.980469 77.074219 29.992188 C 77.828125 30.058594 78.039062 30.753906 77.945312 32.792969 C 77.855469 34.699219 77.789062 34.980469 77.414062 34.878906 C 77.269531 34.839844 76.503906 34.710938 75.710938 34.597656 C 73.722656 34.300781 70.304688 34.480469 67.664062 35.019531 L 66.636719 35.242188 L 66.402344 34.945312 C 66.261719 34.777344 66.160156 34.464844 66.160156 34.261719 C 66.160156 34.015625 66.105469 33.898438 66.003906 33.925781 C 65.78125 34 65.664062 34.632812 65.78125 35.175781 C 65.871094 35.550781 65.832031 35.652344 65.507812 35.921875 C 65.300781 36.089844 65.105469 36.335938 65.066406 36.449219 C 65 36.644531 64.804688 36.671875 63.507812 36.65625 L 62.023438 36.632812 L 61.621094 36.179688 C 61.230469 35.742188 61.21875 35.703125 61.347656 35.136719 C 61.453125 34.683594 61.441406 34.441406 61.308594 34.132812 C 61.113281 33.679688 61.101562 33.691406 60.90625 34.570312 C 60.765625 35.175781 60.515625 35.214844 58.410156 34.851562 C 55.785156 34.414062 53.054688 34.3125 51.105469 34.597656 C 50.300781 34.710938 49.574219 34.839844 49.46875 34.878906 C 49.222656 34.96875 49.144531 34.53125 49.050781 32.609375 C 48.988281 31.167969 49 30.945312 49.234375 30.546875 C 49.390625 30.261719 49.625 30.070312 49.871094 30.007812 L 50.246094 29.902344 L 49.859375 28.78125 C 49.535156 27.789062 49.480469 27.453125 49.46875 26.164062 C 49.457031 24 49.832031 22.929688 50.792969 22.441406 C 51.613281 22.003906 51.820312 22.066406 53.695312 23.417969 Z M 54.421875 35.972656 C 53.695312 36.140625 53.25 36.414062 53.003906 36.835938 C 52.730469 37.289062 52.808594 37.40625 53.25 37.238281 C 53.667969 37.082031 53.628906 37.070312 53.808594 37.507812 C 54.003906 37.972656 54.769531 38.667969 55.082031 38.667969 C 55.253906 38.667969 55.226562 38.601562 54.953125 38.371094 C 54.277344 37.804688 54.097656 36.992188 54.652344 36.992188 C 54.914062 36.992188 54.980469 37.070312 55.058594 37.441406 C 55.1875 38.125 55.707031 38.601562 56.511719 38.785156 C 57.28125 38.9375 57.890625 38.769531 58.449219 38.253906 C 58.734375 37.984375 59.007812 38.023438 59.007812 38.347656 C 59.007812 38.566406 58.269531 39.183594 57.996094 39.195312 C 57.839844 39.195312 57.851562 39.234375 58.058594 39.3125 C 58.371094 39.441406 59.046875 39.300781 59.359375 39.042969 C 59.515625 38.914062 59.605469 38.914062 59.816406 39.042969 C 60.179688 39.261719 60.230469 39.160156 60.011719 38.65625 C 59.828125 38.230469 58.851562 37.238281 58.035156 36.632812 L 57.644531 36.347656 L 58.28125 36.582031 C 58.644531 36.695312 59.230469 37.070312 59.621094 37.429688 C 60.414062 38.140625 60.515625 38.050781 59.867188 37.210938 C 59.503906 36.734375 59.464844 36.644531 59.683594 36.710938 C 59.828125 36.734375 60.140625 36.980469 60.386719 37.226562 C 60.894531 37.742188 60.945312 38.125 60.632812 39.414062 C 60.101562 41.632812 58.722656 42.984375 56.65625 43.320312 C 54.121094 43.734375 51.964844 42.519531 50.949219 40.136719 C 50.417969 38.886719 50.273438 37.523438 50.613281 36.890625 C 50.988281 36.167969 51.925781 35.859375 53.808594 35.859375 C 54.734375 35.859375 54.835938 35.871094 54.421875 35.972656 Z M 74.722656 35.972656 C 76.699219 36.320312 77.023438 37.832031 75.710938 40.535156 C 74.699219 42.636719 72.617188 43.707031 70.292969 43.320312 C 68.132812 42.972656 66.742188 41.566406 66.210938 39.210938 C 66.027344 38.398438 66.039062 38.308594 66.273438 37.703125 C 66.402344 37.339844 66.664062 36.953125 66.832031 36.824219 C 67.234375 36.527344 68.226562 36.375 68.355469 36.59375 C 68.429688 36.710938 68.550781 36.710938 68.824219 36.605469 C 69.339844 36.414062 69.355469 36.527344 68.824219 36.878906 C 68.199219 37.300781 68.199219 37.777344 68.824219 38.359375 C 69.367188 38.863281 69.941406 39.003906 70.707031 38.796875 C 71.410156 38.601562 71.953125 38.074219 72.070312 37.46875 C 72.148438 37.082031 72.226562 36.992188 72.476562 36.992188 C 72.734375 36.992188 72.785156 37.058594 72.785156 37.40625 C 72.785156 37.714844 72.65625 37.933594 72.238281 38.320312 C 71.796875 38.734375 71.761719 38.808594 72.019531 38.734375 C 72.566406 38.566406 72.992188 38.179688 73.230469 37.648438 C 73.449219 37.1875 73.503906 37.148438 73.789062 37.261719 C 74.476562 37.523438 74.527344 37.328125 73.945312 36.683594 C 73.695312 36.402344 73.382812 36.195312 73.097656 36.140625 C 72.851562 36.101562 72.617188 36.011719 72.578125 35.949219 C 72.488281 35.78125 73.707031 35.804688 74.722656 35.972656 Z M 56.214844 37.636719 C 56.214844 38 56.164062 38.085938 55.953125 38.085938 C 55.617188 38.085938 55.355469 37.417969 55.628906 37.238281 C 55.992188 37.019531 56.214844 37.160156 56.214844 37.636719 Z M 71.566406 37.429688 C 71.667969 37.714844 71.382812 38.152344 71.097656 38.152344 C 70.890625 38.152344 70.835938 38.0625 70.835938 37.703125 C 70.835938 37.300781 70.875 37.25 71.164062 37.25 C 71.34375 37.25 71.523438 37.328125 71.566406 37.429688 Z M 77.816406 39.660156 C 77.726562 42.25 77.542969 43.308594 77.011719 44.324219 C 76.671875 45.007812 75.582031 46.605469 75.371094 46.722656 C 75.308594 46.773438 75.257812 46.867188 75.257812 46.929688 C 75.257812 47.164062 75.957031 46.648438 76.414062 46.09375 L 76.855469 45.566406 L 76.777344 47.058594 C 76.683594 48.632812 76.414062 49.726562 75.855469 50.773438 L 75.554688 51.335938 L 75.476562 50.628906 C 75.4375 50.230469 75.296875 49.714844 75.164062 49.484375 L 74.929688 49.042969 L 74.851562 50.460938 C 74.773438 51.90625 74.4375 53.363281 74.191406 53.363281 C 74.046875 53.363281 73.292969 52.601562 71.953125 51.105469 C 71.523438 50.628906 70.734375 49.933594 70.171875 49.535156 C 69.210938 48.851562 69.171875 48.8125 69.109375 48.207031 C 68.992188 47.277344 68.71875 46.828125 68.144531 46.671875 C 67.523438 46.492188 67.457031 46.582031 67.898438 47.019531 C 68.144531 47.289062 68.261719 47.574219 68.328125 48.050781 L 68.40625 48.722656 L 67.808594 48.722656 C 67.484375 48.722656 67.082031 48.773438 66.910156 48.839844 C 66.625 48.941406 66.613281 48.929688 66.652344 48.410156 L 66.691406 47.882812 L 66.289062 48.566406 C 65.402344 50.023438 63.84375 50.605469 62.414062 50.023438 C 61.597656 49.699219 61.0625 49.238281 60.726562 48.554688 C 60.554688 48.21875 60.386719 47.949219 60.347656 47.949219 C 60.308594 47.949219 60.308594 48.179688 60.347656 48.464844 C 60.414062 48.929688 60.386719 48.96875 60.179688 48.851562 C 60.046875 48.773438 59.671875 48.722656 59.347656 48.722656 C 58.878906 48.722656 58.75 48.671875 58.683594 48.464844 C 58.554688 48.050781 58.75 47.40625 59.113281 47.019531 C 59.527344 46.570312 59.425781 46.453125 58.816406 46.660156 C 58.28125 46.839844 58.058594 47.226562 57.902344 48.242188 C 57.8125 48.824219 57.761719 48.902344 57.007812 49.390625 C 56.175781 49.960938 55.058594 51.027344 53.769531 52.496094 C 53.355469 52.972656 52.941406 53.363281 52.847656 53.363281 C 52.574219 53.363281 52.210938 51.839844 52.132812 50.398438 C 52.054688 49.054688 52.054688 49.042969 51.847656 49.429688 C 51.714844 49.652344 51.585938 50.164062 51.535156 50.578125 L 51.429688 51.351562 L 51.199219 50.886719 C 50.652344 49.816406 50.316406 48.527344 50.222656 47.085938 L 50.132812 45.628906 L 50.847656 46.335938 C 51.234375 46.722656 51.628906 47.046875 51.703125 47.046875 C 51.796875 47.046875 51.496094 46.570312 51.054688 45.976562 C 49.613281 44.042969 49.339844 43.140625 49.195312 39.738281 L 49.132812 38.085938 L 49.3125 38.925781 C 49.976562 41.96875 51.714844 43.863281 54.382812 44.429688 C 57.035156 44.984375 59.800781 43.875 60.996094 41.773438 L 61.414062 41.050781 L 61.554688 42.601562 C 61.726562 44.597656 61.828125 44.210938 61.996094 40.796875 C 62.101562 38.992188 62.195312 38.0625 62.296875 38 C 62.554688 37.832031 64.402344 37.882812 64.621094 38.050781 C 64.871094 38.242188 64.960938 38.925781 65.15625 41.789062 C 65.246094 42.960938 65.351562 43.964844 65.390625 44.015625 C 65.445312 44.054688 65.519531 43.5 65.574219 42.792969 L 65.664062 41.480469 L 66.015625 41.980469 C 66.886719 43.28125 68.183594 44.09375 69.925781 44.429688 C 72.527344 44.945312 75.125 43.847656 76.554688 41.632812 C 77.0625 40.832031 77.570312 39.273438 77.671875 38.164062 C 77.828125 36.503906 77.894531 37.210938 77.816406 39.660156 Z M 48.753906 46.519531 C 49.585938 47.355469 49.015625 48.722656 47.832031 48.722656 C 47.402344 48.722656 47.207031 48.644531 46.910156 48.347656 C 46.078125 47.511719 46.648438 46.144531 47.832031 46.144531 C 48.261719 46.144531 48.453125 46.222656 48.753906 46.519531 Z M 80.726562 46.519531 C 81.027344 46.8125 81.105469 47.007812 81.105469 47.433594 C 81.105469 47.859375 81.027344 48.050781 80.726562 48.347656 C 80.429688 48.644531 80.234375 48.722656 79.804688 48.722656 C 79.378906 48.722656 79.179688 48.644531 78.882812 48.347656 C 78.582031 48.050781 78.507812 47.859375 78.507812 47.433594 C 78.507812 47.007812 78.582031 46.8125 78.882812 46.519531 C 79.179688 46.222656 79.378906 46.144531 79.804688 46.144531 C 80.234375 46.144531 80.429688 46.222656 80.726562 46.519531 Z M 65.585938 55.449219 C 66.960938 56.46875 70.808594 58.261719 71.628906 58.261719 C 71.761719 58.261719 71.878906 58.300781 71.878906 58.335938 C 71.878906 58.375 71.421875 58.90625 70.875 59.496094 C 70.082031 60.375 69.824219 60.566406 69.613281 60.5 C 68.835938 60.285156 66.691406 59.136719 66.300781 58.722656 L 65.847656 58.261719 L 66.339844 58.261719 C 66.613281 58.261719 67.066406 58.324219 67.339844 58.414062 C 67.628906 58.492188 67.886719 58.515625 67.925781 58.480469 C 67.976562 58.441406 67.664062 57.976562 67.234375 57.460938 C 66.300781 56.3125 66.234375 56.300781 63.089844 56.351562 C 61.074219 56.390625 60.828125 56.414062 60.570312 56.648438 C 60.21875 56.957031 59.140625 58.375 59.140625 58.515625 C 59.140625 58.570312 59.386719 58.53125 59.683594 58.429688 C 59.972656 58.324219 60.453125 58.261719 60.738281 58.285156 L 61.257812 58.324219 L 60.816406 58.761719 C 60.441406 59.136719 58.304688 60.257812 57.515625 60.5 C 57.292969 60.566406 57.058594 60.375 56.304688 59.546875 C 55.34375 58.480469 55.226562 58.261719 55.566406 58.261719 C 56.292969 58.261719 59.929688 56.570312 61.257812 55.628906 C 61.699219 55.320312 62.386719 54.777344 62.777344 54.417969 L 63.492188 53.773438 L 64.128906 54.316406 C 64.46875 54.597656 65.132812 55.113281 65.585938 55.449219 Z M 90.175781 73.558594 C 90.320312 73.765625 90.503906 74.140625 90.59375 74.398438 L 90.773438 74.875 L 89.488281 76.074219 C 88.785156 76.730469 88.175781 77.285156 88.121094 77.308594 C 88.070312 77.335938 88.136719 76.949219 88.265625 76.472656 C 88.410156 75.996094 88.578125 75.234375 88.65625 74.8125 C 88.917969 73.328125 89.605469 72.757812 90.175781 73.558594 Z M 34.195312 77 C 35.507812 77.789062 36.238281 78.445312 36.730469 79.28125 C 36.953125 79.667969 37.421875 80.46875 37.769531 81.0625 C 38.121094 81.667969 38.851562 82.621094 39.382812 83.1875 C 40.773438 84.65625 41.371094 85.519531 42.386719 87.441406 C 43.738281 90.007812 44.464844 92.519531 44.660156 95.265625 L 44.75 96.503906 L 44.074219 96.746094 C 43.710938 96.878906 43.414062 97.019531 43.414062 97.058594 C 43.414062 97.09375 43.773438 97.109375 44.230469 97.082031 L 45.039062 97.03125 L 46.402344 97.90625 C 48 98.9375 49.027344 99.351562 54.003906 100.9375 C 55.992188 101.570312 57.671875 102.121094 57.707031 102.160156 C 57.746094 102.199219 55.316406 102.214844 52.316406 102.171875 C 49.3125 102.136719 46.128906 102.160156 45.230469 102.214844 C 42.734375 102.378906 40.890625 102.960938 38.890625 104.183594 L 38.054688 104.703125 L 36.355469 104.082031 C 34.691406 103.476562 33.988281 103.191406 31.519531 102.109375 C 30.882812 101.824219 29.554688 101.324219 28.59375 101 C 26.164062 100.164062 24.785156 99.480469 24.035156 98.730469 C 23.292969 98 23.109375 97.367188 23.449219 96.746094 C 23.824219 96.039062 24.085938 95.972656 24.863281 96.363281 C 25.230469 96.554688 25.917969 96.953125 26.371094 97.277344 C 26.828125 97.585938 27.214844 97.816406 27.257812 97.777344 C 27.425781 97.609375 27.035156 97.042969 26.046875 96 C 24.566406 94.429688 23.394531 92.867188 23.382812 92.445312 C 23.355469 91.824219 23.421875 91.464844 23.617188 91.089844 C 23.851562 90.625 24.097656 90.535156 24.476562 90.765625 C 24.890625 91.039062 26.644531 91.683594 26.734375 91.605469 C 26.929688 91.398438 26.230469 90.675781 25.28125 90.121094 C 23.433594 89.054688 22.367188 87.738281 22.355469 86.539062 C 22.355469 85.972656 22.640625 85.019531 22.941406 84.632812 C 23.121094 84.398438 23.164062 84.398438 23.878906 84.875 C 24.667969 85.394531 27.359375 87.582031 27.671875 87.945312 C 27.90625 88.242188 28.074219 88.214844 28.074219 87.894531 C 28.074219 87.234375 26.632812 85.660156 24.332031 83.820312 C 22.667969 82.492188 21.027344 80.917969 20.730469 80.378906 C 20.523438 80.003906 20.511719 79.863281 20.640625 79.4375 C 20.808594 78.859375 21.457031 78.148438 21.875 78.085938 C 22.550781 77.96875 24.382812 78.730469 26.113281 79.835938 C 26.578125 80.144531 27.464844 80.699219 28.074219 81.074219 C 28.683594 81.449219 29.738281 82.144531 30.425781 82.636719 C 31.621094 83.484375 33.144531 84.375 36.042969 85.894531 L 37.445312 86.628906 L 36.914062 85.960938 C 35.976562 84.785156 35.953125 84.683594 35.9375 82.738281 C 35.9375 81.226562 35.898438 80.945312 35.679688 80.609375 L 35.429688 80.234375 L 35.316406 80.75 C 35.25 81.035156 35.171875 81.292969 35.144531 81.320312 C 35.066406 81.410156 34.222656 80.816406 33.703125 80.273438 C 32.871094 79.425781 32.453125 78.40625 32.390625 77.027344 L 32.324219 75.867188 L 32.765625 76.136719 C 33.015625 76.28125 33.648438 76.664062 34.195312 77 Z M 90.851562 79.089844 L 90.59375 79.695312 L 90.203125 79.335938 L 89.8125 78.960938 L 90.425781 78.328125 L 91.046875 77.710938 L 91.085938 78.097656 C 91.113281 78.316406 91.007812 78.765625 90.851562 79.089844 Z M 101.652344 79.824219 C 102.171875 80.171875 102.484375 80.894531 102.367188 81.488281 C 102.277344 81.949219 101.394531 83.523438 101.226562 83.523438 C 101.171875 83.523438 101.121094 83.328125 101.121094 83.097656 C 101.121094 82.46875 100.574219 81.460938 99.898438 80.84375 C 99.558594 80.535156 99.300781 80.261719 99.328125 80.234375 C 99.523438 80.054688 100.703125 79.527344 100.925781 79.527344 C 101.082031 79.527344 101.40625 79.65625 101.652344 79.824219 Z M 88.226562 80.957031 C 89.253906 81.449219 89.527344 82.375 89.109375 83.949219 C 89.007812 84.320312 88.890625 85.082031 88.835938 85.625 L 88.746094 86.617188 L 87.773438 87.210938 C 87.253906 87.546875 86.835938 87.839844 86.875 87.878906 C 86.992188 87.996094 88.265625 87.507812 89.863281 86.746094 C 91.023438 86.191406 91.828125 85.675781 92.90625 84.8125 C 93.726562 84.179688 94.921875 83.316406 95.570312 82.917969 C 96.585938 82.300781 96.859375 82.183594 97.378906 82.183594 C 98.546875 82.183594 99.601562 83.277344 99.601562 84.503906 C 99.601562 84.96875 99.507812 85.183594 99.015625 85.804688 C 98.378906 86.617188 97.222656 88.34375 97.222656 88.5 C 97.222656 88.550781 97.535156 88.304688 97.910156 87.957031 C 98.300781 87.609375 98.925781 87.144531 99.316406 86.9375 C 99.730469 86.707031 100.199219 86.304688 100.472656 85.933594 C 100.859375 85.40625 100.992188 85.328125 101.382812 85.328125 C 102.578125 85.339844 103.332031 87.03125 102.695312 88.265625 C 102.550781 88.523438 102.171875 89.089844 101.835938 89.515625 C 101.511719 89.929688 100.914062 90.808594 100.511719 91.449219 C 100.121094 92.082031 99.703125 92.714844 99.585938 92.839844 C 99.484375 92.957031 99.429688 93.101562 99.484375 93.152344 C 99.574219 93.253906 100.042969 92.792969 101.914062 90.726562 L 102.914062 89.644531 L 103.265625 89.839844 C 103.863281 90.160156 104.109375 90.613281 104.136719 91.386719 C 104.164062 92.3125 103.796875 92.984375 102.875 93.796875 C 102.082031 94.464844 100.015625 96.914062 100.132812 97.03125 C 100.226562 97.109375 101.027344 96.488281 101.964844 95.625 C 102.328125 95.304688 102.863281 94.8125 103.175781 94.542969 L 103.722656 94.066406 L 103.722656 95.007812 C 103.707031 96.28125 103.460938 96.773438 102.226562 97.960938 C 98.886719 101.144531 98.066406 101.609375 92.425781 103.527344 C 88.359375 104.90625 87.097656 105.488281 84.160156 107.355469 C 81.585938 108.992188 80.441406 109.636719 76.621094 111.558594 C 73.476562 113.144531 64.921875 117.253906 63.167969 118.039062 C 62.84375 118.183594 62.234375 118.453125 61.804688 118.644531 C 59.386719 119.71875 54.421875 121.574219 51.273438 122.589844 C 49.429688 123.195312 45.230469 124.28125 43.671875 124.574219 C 39.550781 125.335938 34.496094 125.363281 32.039062 124.628906 L 31.128906 124.355469 L 32.023438 124.023438 C 32.636719 123.804688 33.117188 123.507812 33.574219 123.078125 C 33.9375 122.730469 34.195312 122.421875 34.160156 122.382812 C 34.117188 122.335938 33.585938 122.476562 32.988281 122.683594 C 31.53125 123.195312 29.398438 123.621094 28.191406 123.648438 C 27.203125 123.675781 27.191406 123.675781 26.4375 123.09375 C 25.527344 122.398438 24.511719 121.109375 24.292969 120.375 C 24.070312 119.652344 24.304688 118.570312 24.96875 117.253906 C 26.136719 114.972656 28.660156 111.96875 30.675781 110.5 C 31.414062 109.960938 32.378906 109.433594 32.621094 109.433594 C 32.691406 109.433594 32.402344 109.894531 31.976562 110.472656 C 30.542969 112.382812 29.777344 113.890625 29.453125 115.425781 C 29.363281 115.886719 29.296875 116.261719 29.308594 116.261719 C 29.335938 116.261719 29.570312 115.835938 29.828125 115.308594 C 30.441406 114.082031 30.921875 113.453125 32.691406 111.546875 C 36.472656 107.484375 38.601562 105.859375 41.683594 104.714844 C 43.839844 103.902344 44.152344 103.875 51.796875 103.757812 C 59.046875 103.644531 61.230469 103.578125 63.234375 103.359375 C 66.222656 103.039062 73.332031 101.09375 75.761719 99.917969 C 76.710938 99.457031 77.414062 98.863281 78.832031 97.300781 C 79.207031 96.878906 79.714844 96.488281 80.066406 96.335938 C 81.613281 95.679688 82.003906 95.355469 81.402344 95.277344 C 81.027344 95.226562 81.027344 95.097656 81.429688 93.0625 C 81.742188 91.425781 82.742188 86.863281 82.871094 86.460938 C 82.898438 86.347656 83.390625 85.613281 83.953125 84.8125 C 84.523438 84.023438 85.265625 82.777344 85.601562 82.027344 L 86.226562 80.6875 L 86.941406 80.6875 C 87.394531 80.6875 87.851562 80.789062 88.226562 80.957031 Z M 96.636719 104.984375 C 100.289062 106.195312 103.628906 109.183594 104.957031 112.433594 C 105.476562 113.683594 105.734375 115.023438 105.632812 115.875 C 105.539062 116.636719 105.046875 117.605469 103.890625 119.292969 C 102.601562 121.171875 102.640625 121.160156 98.78125 121.160156 C 95.492188 121.160156 93.050781 121.316406 92.21875 121.558594 L 91.699219 121.714844 L 92.996094 121.933594 C 93.710938 122.0625 94.507812 122.21875 94.753906 122.28125 C 95.207031 122.398438 95.207031 122.398438 94.167969 122.683594 C 92.554688 123.121094 91.839844 123.222656 89.789062 123.339844 C 86.566406 123.53125 83.210938 123.234375 80.261719 122.5 C 78.921875 122.167969 69.695312 119.265625 67.082031 118.363281 L 66.519531 118.15625 L 71.019531 115.925781 C 77.269531 112.820312 79.117188 111.789062 82.925781 109.300781 C 87.722656 106.171875 88.070312 106.027344 90.789062 106.015625 C 92.464844 106.015625 92.476562 106.015625 93.257812 106.453125 C 94.101562 106.917969 95.582031 107.976562 96.675781 108.890625 C 97.050781 109.199219 97.390625 109.433594 97.429688 109.390625 C 97.507812 109.316406 96.417969 107.34375 95.976562 106.761719 C 95.664062 106.351562 94.0625 105.230469 93.335938 104.90625 C 92.621094 104.597656 92.894531 104.496094 94.269531 104.558594 C 95.222656 104.609375 95.882812 104.726562 96.636719 104.984375 Z M 96.636719 104.984375 "/>
<path style=" stroke:none;fill-rule:nonzero;fill:rgb(0%,0%,0%);fill-opacity:1;" d="M 68.824219 39.3125 C 68.859375 39.378906 68.992188 39.441406 69.097656 39.441406 C 69.199219 39.441406 69.25 39.378906 69.210938 39.3125 C 69.171875 39.234375 69.042969 39.183594 68.941406 39.183594 C 68.835938 39.183594 68.785156 39.234375 68.824219 39.3125 Z M 68.824219 39.3125 "/>
<path style=" stroke:none;fill-rule:nonzero;fill:rgb(0%,0%,0%);fill-opacity:1;" d="M 29.425781 87.261719 C 29.515625 88.421875 29.660156 88.5625 31.152344 89.117188 C 31.714844 89.324219 32.378906 89.621094 32.621094 89.773438 C 33.167969 90.109375 34.105469 90.484375 34.402344 90.484375 C 34.714844 90.484375 32.882812 89.246094 31.648438 88.613281 C 30.726562 88.152344 30.542969 87.996094 30.078125 87.285156 C 29.789062 86.847656 29.503906 86.449219 29.453125 86.398438 C 29.386719 86.332031 29.375 86.734375 29.425781 87.261719 Z M 29.425781 87.261719 "/>
<path style=" stroke:none;fill-rule:nonzero;fill:rgb(0%,0%,0%);fill-opacity:1;" d="M 28.464844 91.863281 C 29.113281 93.074219 29.230469 93.175781 30.089844 93.320312 C 31.167969 93.511719 32.011719 93.796875 33.050781 94.3125 C 33.535156 94.542969 33.921875 94.683594 33.921875 94.609375 C 33.921875 94.414062 33.15625 93.601562 32.691406 93.320312 C 32.453125 93.175781 31.714844 92.933594 31.050781 92.792969 C 29.894531 92.546875 29.804688 92.492188 29.101562 91.824219 C 28.683594 91.4375 28.285156 91.128906 28.203125 91.128906 C 28.128906 91.128906 28.242188 91.464844 28.464844 91.863281 Z M 28.464844 91.863281 "/>
<path style=" stroke:none;fill-rule:nonzero;fill:rgb(0%,0%,0%);fill-opacity:1;" d="M 94.648438 88.214844 C 94.480469 88.871094 94.167969 89.128906 92.933594 89.644531 C 90.816406 90.535156 89.554688 91.308594 89.554688 91.734375 C 89.554688 92.171875 90.839844 91.695312 92.699219 90.558594 C 94.777344 89.296875 95.167969 88.9375 95.117188 88.253906 C 95.066406 87.546875 94.84375 87.53125 94.648438 88.214844 Z M 94.648438 88.214844 "/>
<path style=" stroke:none;fill-rule:nonzero;fill:rgb(0%,0%,0%);fill-opacity:1;" d="M 97.871094 91.449219 C 97.597656 91.71875 96.976562 92.082031 96.3125 92.351562 C 95.128906 92.839844 93.191406 93.9375 93.191406 94.132812 C 93.191406 94.273438 93.582031 94.144531 94.6875 93.640625 C 95.195312 93.410156 95.910156 93.152344 96.285156 93.074219 C 97.820312 92.753906 98.847656 91.835938 98.417969 91.167969 C 98.339844 91.050781 98.183594 91.140625 97.871094 91.449219 Z M 97.871094 91.449219 "/>
<path style=" stroke:none;fill-rule:nonzero;fill:rgb(0%,0%,0%);fill-opacity:1;" d="M 79.023438 13.46875 C 79.023438 13.496094 79.167969 14.074219 79.335938 14.730469 C 79.703125 16.097656 79.933594 17.632812 79.933594 18.585938 C 79.933594 19.101562 80.023438 19.386719 80.324219 19.847656 C 81.089844 21.050781 81.871094 23.960938 82.089844 26.578125 L 82.183594 27.570312 L 83.628906 28.640625 C 86.511719 30.753906 89.851562 33.410156 92.542969 35.675781 C 94.179688 37.070312 95.039062 37.816406 95.222656 38 C 95.425781 38.191406 95.378906 38.28125 95.792969 37.058594 C 96.285156 35.613281 98.289062 30.679688 98.390625 30.679688 C 98.445312 30.679688 98.558594 32.960938 98.652344 35.730469 C 98.742188 38.515625 98.820312 40.910156 98.832031 41.050781 C 98.859375 41.234375 103.332031 45.757812 104.371094 46.648438 C 104.410156 46.671875 104.34375 46.648438 104.238281 46.59375 C 104.136719 46.53125 104.773438 47.238281 105.671875 48.15625 C 106.566406 49.070312 107.878906 50.476562 108.582031 51.273438 C 109.285156 52.074219 109.910156 52.71875 109.945312 52.71875 C 109.996094 52.71875 110.21875 52.496094 110.441406 52.226562 C 110.660156 51.96875 111.066406 51.519531 111.335938 51.234375 C 111.621094 50.953125 112.664062 49.84375 113.664062 48.785156 C 114.664062 47.730469 115.796875 46.53125 116.160156 46.128906 L 116.847656 45.410156 L 116.445312 44.96875 C 112.390625 40.460938 106.410156 34.464844 102.695312 31.191406 C 102.097656 30.664062 101.300781 29.953125 100.941406 29.632812 C 96.402344 25.546875 87.980469 19.179688 82.015625 15.3125 C 79.128906 13.441406 79.023438 13.390625 79.023438 13.46875 Z M 79.023438 13.46875 "/>
<path style=" stroke:none;fill-rule:nonzero;fill:rgb(0%,0%,0%);fill-opacity:1;" d="M 83.886719 44.238281 C 83.832031 44.546875 83.808594 45.304688 83.820312 45.949219 C 83.847656 47.742188 83.601562 48.773438 82.847656 49.972656 L 82.417969 50.628906 L 82.664062 51.542969 C 82.792969 52.046875 82.9375 52.960938 82.988281 53.59375 C 83.066406 54.664062 83.09375 54.742188 83.417969 54.871094 C 83.613281 54.960938 84.535156 55.347656 85.457031 55.746094 C 86.394531 56.160156 87.214844 56.496094 87.277344 56.507812 C 87.355469 56.53125 87.707031 56.675781 88.058594 56.832031 C 88.421875 56.996094 89.320312 57.371094 90.074219 57.679688 C 90.828125 57.988281 91.773438 58.386719 92.203125 58.570312 C 92.621094 58.75 92.972656 58.90625 92.984375 58.90625 C 92.984375 58.90625 92.984375 57.292969 92.972656 55.335938 L 92.933594 51.75 L 92.0625 50.914062 C 89.488281 48.476562 87.746094 46.902344 84.847656 44.429688 L 83.988281 43.679688 Z M 83.886719 44.238281 "/>
<path style=" stroke:none;fill-rule:nonzero;fill:rgb(0%,0%,0%);fill-opacity:1;" d="M 99.535156 60.023438 C 99.574219 61.972656 99.601562 62.050781 100.160156 62.386719 L 100.613281 62.667969 L 101.289062 61.921875 C 101.667969 61.507812 101.953125 61.144531 101.925781 61.109375 C 101.914062 61.070312 101.472656 60.566406 100.953125 60.011719 C 100.445312 59.445312 99.9375 58.878906 99.847656 58.75 C 99.757812 58.621094 99.640625 58.515625 99.585938 58.515625 C 99.535156 58.515625 99.507812 59.199219 99.535156 60.023438 Z M 99.535156 60.023438 "/>
<path style=" stroke:none;fill-rule:nonzero;fill:rgb(0%,0%,0%);fill-opacity:1;" d="M 31.621094 60.527344 C 31.675781 60.800781 31.714844 61.160156 31.714844 61.3125 C 31.714844 61.597656 31.714844 61.597656 32.296875 61.25 C 32.609375 61.058594 32.882812 60.875 32.882812 60.835938 C 32.882812 60.800781 32.585938 60.605469 32.207031 60.398438 L 31.546875 60.023438 Z M 31.621094 60.527344 "/>
<path style=" stroke:none;fill-rule:nonzero;fill:rgb(0%,0%,0%);fill-opacity:1;" d="M 61.804688 122.410156 C 59.425781 123.453125 54.082031 125.59375 53.511719 125.734375 C 53.316406 125.789062 53.132812 125.863281 53.097656 125.917969 C 53.027344 126.03125 55.277344 126.378906 57.96875 126.664062 C 60.453125 126.921875 66.898438 126.960938 69.339844 126.730469 C 72.878906 126.394531 77.738281 125.621094 77.503906 125.414062 C 77.453125 125.363281 76.816406 125.167969 76.101562 124.964844 C 73.851562 124.355469 69.707031 123.121094 66.976562 122.253906 C 65.546875 121.792969 64.285156 121.417969 64.179688 121.429688 C 64.089844 121.429688 63.023438 121.882812 61.804688 122.410156 Z M 61.804688 122.410156 "/>
</g>
</svg>
